<?xml version="1.0" encoding="UTF-8" standalone="no"?>

<svg
   xmlns:dc="http://purl.org/dc/elements/1.1/"
   xmlns:cc="http://creativecommons.org/ns#"
   xmlns:rdf="http://www.w3.org/1999/02/22-rdf-syntax-ns#"
   xmlns:svg="http://www.w3.org/2000/svg"
   xmlns="http://www.w3.org/2000/svg"
   xmlns:sodipodi="http://sodipodi.sourceforge.net/DTD/sodipodi-0.dtd"
   xmlns:inkscape="http://www.inkscape.org/namespaces/inkscape"
   width="150"
   height="50"
   id="svg2"
   version="1.1"
   inkscape:version="0.48.3.1 r9886"
   sodipodi:docname="New document 1">
  <defs
     id="defs4" />
  <sodipodi:namedview
     id="base"
     pagecolor="#ffffff"
     bordercolor="#666666"
     borderopacity="1.0"
     inkscape:pageopacity="0.0"
     inkscape:pageshadow="2"
     inkscape:zoom="1"
     inkscape:cx="120.73482"
     inkscape:cy="-33.504577"
     inkscape:document-units="px"
     inkscape:current-layer="layer1"
     showgrid="false"
     inkscape:window-width="1215"
     inkscape:window-height="1000"
     inkscape:window-x="65"
     inkscape:window-y="24"
     inkscape:window-maximized="1" />
  <metadata
     id="metadata7">
    <rdf:RDF>
      <cc:Work
         rdf:about="">
        <dc:format>image/svg+xml</dc:format>
        <dc:type
           rdf:resource="http://purl.org/dc/dcmitype/StillImage" />
        <dc:title></dc:title>
      </cc:Work>
    </rdf:RDF>
  </metadata>
  <g
     inkscape:label="Layer 1"
     inkscape:groupmode="layer"
     id="layer1"
     transform="translate(0,-1002.3622)">
    <path
       style="fill:#000000;stroke:#000000;stroke-width:1px;stroke-linecap:butt;stroke-linejoin:miter;stroke-opacity:1"
       d="m 70.080583,1004.8015 -19.5,0 11,4.5"
       id="path3905"
       inkscape:connector-curvature="0" />
    <path
       style="fill:#000000;stroke:#000000;stroke-width:1px;stroke-linecap:butt;stroke-linejoin:miter;stroke-opacity:1"
       d="m 88.593299,1022.3582 19.500001,0 -11.000001,4.5"
       id="path3905-5"
       inkscape:connector-curvature="0" />
    <path
       sodipodi:type="arc"
       style="color:#000000;fill:#000000;fill-opacity:1;fill-rule:nonzero;stroke:none;stroke-width:1;marker:none;visibility:visible;display:inline;overflow:visible;enable-background:accumulate"
       id="path3827-0"
       sodipodi:cx="84.49926"
       sodipodi:cy="10.755573"
       sodipodi:rx="18.031223"
       sodipodi:ry="7.4246211"
       d="m 102.53048,10.755573 a 18.031223,7.4246211 0 1 1 -36.062443,0 18.031223,7.4246211 0 1 1 36.062443,0 z"
       transform="matrix(1.0246726,0,0,1.0312536,-5.4109731,1016.9142)" />
    <path
       inkscape:connector-curvature="0"
       id="path15466"
       style="fill:#ffffff;fill-opacity:1;fill-rule:nonzero;stroke:#000000;stroke-width:3.18253684;stroke-linecap:butt;stroke-linejoin:miter;stroke-miterlimit:4;stroke-opacity:1;stroke-dasharray:none"
       d="m 147.42395,1053.9346 c 0.002,-10.809 -8.71642,-19.5726 -19.47172,-19.5726 -10.7553,0 -19.47367,8.7636 -19.47174,19.5726" />
    <path
       inkscape:connector-curvature="0"
       id="path15470"
       style="fill:none;stroke:#000000;stroke-width:5.86256838;stroke-linecap:butt;stroke-linejoin:miter;stroke-miterlimit:4;stroke-opacity:1;stroke-dasharray:none"
       d="m 111.96574,1023.632 c -0.003,8.6291 6.99261,15.6255 15.6217,15.6255 8.6291,0 15.62379,-6.9964 15.62171,-15.6255 0.003,-8.629 -6.99261,-15.6254 -15.62171,-15.6254 -8.62909,0 -15.62377,6.9964 -15.6217,15.6254 l 0,0 z" />
    <path
       inkscape:connector-curvature="0"
       id="path15472"
       style="fill:#ffffff;fill-opacity:1;fill-rule:nonzero;stroke:none"
       d="m 112.44852,1023.6455 c -0.003,8.3677 6.78072,15.1521 15.14833,15.1521 8.36761,0 15.15033,-6.7844 15.14832,-15.1521 0.002,-8.3676 -6.78071,-15.1519 -15.14832,-15.1519 -8.36761,0 -15.15034,6.7843 -15.14833,15.1519 l 0,0 z" />
    <path
       inkscape:connector-curvature="0"
       id="path15474"
       style="fill:#000000;fill-opacity:1;fill-rule:nonzero;stroke:#000000;stroke-width:0.41875488;stroke-miterlimit:4;stroke-dasharray:none"
       d="m 124.47773,1015.1573 c 2.58174,-1.2348 6.81284,-1.6556 11.46318,2.205 2.60118,2.1593 7.34996,1.3336 5.70045,-0.6082 -4.35028,-5.1216 -3.95096,-7.2444 -14.57049,-8.6204 -4.23058,-0.548 -9.67912,2.6903 -13.12449,7.8995 -1.82105,2.7535 -0.83416,4.5603 10.53135,-0.8759 z" />
    <path
       inkscape:connector-curvature="0"
       id="path5740"
       style="fill:#000000;fill-opacity:1;fill-rule:nonzero;stroke:none"
       d="m 46.399395,1016.6305 c -0.228734,1.9242 2.339501,3.7402 5.735953,4.0554 3.396454,0.3156 6.334661,-0.9889 6.562286,-2.9132 0.228721,-1.9243 -2.339501,-3.7401 -5.735964,-4.0555 -3.396454,-0.3155 -6.334657,0.989 -6.562275,2.9133 l 0,0 z" />
    <path
       inkscape:connector-curvature="0"
       id="path6615"
       style="fill:#000000;fill-opacity:1;fill-rule:nonzero;stroke:none"
       d="m 0.86866376,1016.6396 c 0.14668144,1.9322 3.01690264,3.2185 6.41042504,2.873 3.3935222,-0.3455 6.0249782,-2.1921 5.8771742,-4.1243 -0.146698,-1.9322 -3.016911,-3.2187 -6.410425,-2.873 -3.3935224,0.3456 -6.02497795,2.1923 -5.87717424,4.1243 l 0,0 z" />
    <path
       inkscape:connector-curvature="0"
       id="path15466-3"
       style="fill:#ffffff;fill-opacity:1;fill-rule:nonzero;stroke:#000000;stroke-width:3.18253684;stroke-linecap:butt;stroke-linejoin:miter;stroke-miterlimit:4;stroke-opacity:1;stroke-dasharray:none"
       d="m 49.41927,1053.1021 c 0.0018,-10.809 -8.716433,-19.5726 -19.471733,-19.5726 -10.7553,0 -19.473659,8.7636 -19.471732,19.5726" />
    <path
       inkscape:connector-curvature="0"
       id="path15470-0"
       style="fill:none;stroke:#000000;stroke-width:5.86256838;stroke-linecap:butt;stroke-linejoin:miter;stroke-miterlimit:4;stroke-opacity:1;stroke-dasharray:none"
       d="m 13.961051,1022.7994 c -0.0026,8.6291 6.992612,15.6256 15.621701,15.6256 8.629097,0 15.623777,-6.9965 15.621708,-15.6256 0.0016,-8.6289 -6.992611,-15.6253 -15.621708,-15.6253 -8.629089,0 -15.623777,6.9964 -15.621701,15.6253 l 0,0 z" />
    <path
       inkscape:connector-curvature="0"
       id="path15472-6"
       style="fill:#ffffff;fill-opacity:1;fill-rule:nonzero;stroke:none"
       d="m 14.443842,1022.8129 c -0.0026,8.3676 6.780705,15.1522 15.148315,15.1522 8.367609,0 15.150333,-6.7846 15.148323,-15.1522 0.0016,-8.3675 -6.780714,-15.1519 -15.148323,-15.1519 -8.36761,0 -15.150333,6.7844 -15.148315,15.1519 l 0,0 z" />
    <path
       inkscape:connector-curvature="0"
       id="path15474-8"
       style="fill:#000000;fill-opacity:1;fill-rule:nonzero;stroke:#000000;stroke-width:0.41875488;stroke-miterlimit:4;stroke-dasharray:none"
       d="m 26.473045,1014.3247 c 2.581732,-1.2347 6.812831,-1.6556 11.46317,2.205 2.601181,2.1594 7.34997,1.3337 5.700461,-0.6082 -4.350294,-5.1216 -3.950969,-7.2444 -14.570492,-8.6205 -4.23058,-0.5479 -9.679125,2.6904 -13.12449,7.8996 -1.821038,2.7535 -0.834167,4.5603 10.531351,-0.8759 z" />
    <text
       xml:space="preserve"
       style="font-size:24.19140816px;font-style:normal;font-weight:normal;line-height:125%;letter-spacing:0px;word-spacing:0px;fill:#000000;fill-opacity:1;stroke:none;font-family:Sans"
       x="21.147417"
       y="1033.6969"
       id="text3802"
       sodipodi:linespacing="125%"><tspan
         sodipodi:role="line"
         id="tspan3804"
         x="21.147417"
         y="1033.6969">A</tspan></text>
    <text
       xml:space="preserve"
       style="font-size:24.19140816px;font-style:normal;font-weight:normal;line-height:125%;letter-spacing:0px;word-spacing:0px;fill:#000000;fill-opacity:1;stroke:none;font-family:Sans"
       x="119.74497"
       y="1035.171"
       id="text3802-4"
       sodipodi:linespacing="125%"><tspan
         sodipodi:role="line"
         id="tspan3804-4"
         x="119.74497"
         y="1035.171">B</tspan></text>
    <path
       sodipodi:type="arc"
       style="color:#000000;fill:#000000;fill-opacity:1;fill-rule:nonzero;stroke:none;stroke-width:1;marker:none;visibility:visible;display:inline;overflow:visible;enable-background:accumulate"
       id="path3827"
       sodipodi:cx="84.49926"
       sodipodi:cy="10.755573"
       sodipodi:rx="18.031223"
       sodipodi:ry="7.4246211"
       d="m 102.53048,10.755573 a 18.031223,7.4246211 0 1 1 -36.062443,0 18.031223,7.4246211 0 1 1 36.062443,0 z"
       transform="matrix(1.0246726,0,0,1.0550631,-9.7406469,1000.2172)" />
    <path
       d="m 67.76951,1006.7872 c -1.84513,0 -3.34275,2.1081 -3.34275,4.7049 0,2.5968 1.49762,4.704 3.34275,4.704 1.46818,0 2.71624,-1.3339 3.16491,-3.1874 l 2.73432,0 0.93521,-1.1329 0.61655,0 0.41525,0.4152 0.99569,0 0.1652,-0.2853 0.95958,0 0.44233,0.7664 0.81154,0 0.52628,-0.5262 0.6987,0 0.60753,0.6075 0.76279,0 1.52108,-1.5211 0,-0.4486 -0.34123,-0.091 -0.91084,-0.9108 -10.96345,0 c -0.46761,-1.8044 -1.69824,-3.0945 -3.14144,-3.0945 z m -1.27915,3.0349 c 0.59226,0 1.07242,0.7482 1.07242,1.67 0,0.9218 -0.48016,1.67 -1.07242,1.67 -0.59226,0 -1.07333,-0.7482 -1.07333,-1.67 0,-0.9218 0.48107,-1.67 1.07333,-1.67 z"
       style="fill:#ffffff;stroke:none"
       id="path23"
       inkscape:connector-curvature="0" />
    <text
       xml:space="preserve"
       style="font-size:14.14141369px;font-style:normal;font-variant:normal;font-weight:normal;font-stretch:normal;line-height:125%;letter-spacing:0px;word-spacing:0px;fill:#ffffff;fill-opacity:1;stroke:none;font-family:Sawasdee;-inkscape-font-specification:Sawasdee"
       x="82.672058"
       y="1016.4764"
       id="text3846"
       sodipodi:linespacing="125%"><tspan
         sodipodi:role="line"
         id="tspan3848"
         x="82.672058"
         y="1016.4764"
         style="font-style:normal;font-variant:normal;font-weight:normal;font-stretch:normal;fill:#ffffff;font-family:Sans;-inkscape-font-specification:Sans">?</tspan></text>
    <path
       d="m 71.917797,1022.9901 c -1.84513,0 -3.34275,2.1081 -3.34275,4.7049 0,2.5968 1.49762,4.704 3.34275,4.704 1.46818,0 2.71624,-1.3339 3.16491,-3.1874 l 2.73432,0 0.93521,-1.1329 0.61655,0 0.41525,0.4152 0.99569,0 0.1652,-0.2853 0.95958,0 0.44233,0.7664 0.81154,0 0.52628,-0.5262 0.6987,0 0.60753,0.6075 0.76279,0 1.52108,-1.5211 0,-0.4486 -0.34123,-0.091 -0.91084,-0.9108 -10.96345,0 c -0.46761,-1.8044 -1.69824,-3.0945 -3.14144,-3.0945 z m -1.27915,3.0349 c 0.59226,0 1.07242,0.7482 1.07242,1.67 0,0.9218 -0.48016,1.67 -1.07242,1.67 -0.59226,0 -1.07333,-0.7482 -1.07333,-1.67 0,-0.9218 0.48107,-1.67 1.07333,-1.67 z"
       style="fill:#ffffff;stroke:none"
       id="path23-6"
       inkscape:connector-curvature="0" />
    <text
       xml:space="preserve"
       style="font-size:14.14141369px;font-style:normal;font-variant:normal;font-weight:normal;font-stretch:normal;line-height:125%;letter-spacing:0px;word-spacing:0px;fill:#ffffff;fill-opacity:1;stroke:none;font-family:Sans;-inkscape-font-specification:Sans"
       x="87.320343"
       y="1032.929"
       id="text3846-3"
       sodipodi:linespacing="125%"><tspan
         sodipodi:role="line"
         id="tspan3848-8"
         x="87.320343"
         y="1032.929">!</tspan></text>
    <path
       style="fill:#000000"
       inkscape:connector-curvature="0"
       d="m 78.515188,1039.2552 c -0.79813,-1.3813 -2.128345,-2.3483 -3.724603,-2.3483 -2.261369,0 -3.990648,1.7959 -3.990648,4.1442 0,4.5586 2.394387,5.2493 7.715251,10.4986 5.320863,-5.2493 7.715251,-5.94 7.715251,-10.4986 0,-2.3483 -1.72928,-4.1442 -3.990648,-4.1442 -1.596258,0 -2.926474,0.967 -3.724603,2.3483 z"
       id="path4" />
  </g>
</svg>
